# xmcd
#
# Track frame offsets: 
#        150
#        17701
#        37400
#        51253
#        67211
#        80553
#        97621
#        118384
#        133687
#
# Disc length: 2047 seconds
#
# Revision: 0
# Processed by: cddbd v1.5.2PL0 Copyright (c) Steve Scherf et al.
# Submitted via: ExactAudioCopy v1.0b3
#
DISCID=8207fd09
DTITLE=Blackbird - Blackbird
DYEAR=2011
DGENRE=Pop
TTITLE0=Lines between us
TTITLE1=You never seem to remember
TTITLE2=Did I say that I loved you?
TTITLE3=Good days
TTITLE4=Gooseberry
TTITLE5=You are a star
TTITLE6=Voice of past
TTITLE7=Stay with me
TTITLE8=Take me down
EXTD=
EXTT0=
EXTT1=
EXTT2=
EXTT3=
EXTT4=
EXTT5=
EXTT6=
EXTT7=
EXTT8=
PLAYORDER=
